<svg width="18" height="18" viewBox="0 0 18 18" fill="none" xmlns="http://www.w3.org/2000/svg">
<rect width="18" height="18" rx="3" fill="#403F46"/>
<path d="M13.5803 9.585C13.605 9.393 13.6235 9.198 13.6235 9C13.6235 8.802 13.605 8.607 13.5803 8.415L14.8846 7.422C15.0018 7.332 15.0357 7.17 14.9586 7.038L13.7253 4.959C13.6482 4.83 13.4878 4.776 13.3491 4.83L11.8136 5.433C11.496 5.196 11.1476 4.995 10.7714 4.842L10.5401 3.252C10.5124 3.111 10.386 3 10.2318 3H7.76511C7.61094 3 7.48452 3.111 7.45986 3.252L7.22861 4.842C6.85243 4.995 6.50401 5.193 6.18643 5.433L4.65091 4.83C4.51216 4.779 4.35182 4.83 4.27474 4.959L3.04139 7.038C2.96431 7.167 2.99823 7.329 3.11539 7.422L4.41657 8.415C4.39191 8.607 4.37341 8.802 4.37341 9C4.37341 9.198 4.39191 9.393 4.41657 9.585L3.11539 10.578C2.99823 10.668 2.96431 10.83 3.04139 10.962L4.27474 13.041C4.35182 13.17 4.51216 13.224 4.65091 13.17L6.18643 12.567C6.50401 12.804 6.85243 13.005 7.22861 13.158L7.45986 14.748C7.48452 14.889 7.61094 15 7.76511 15H10.2318C10.386 15 10.5124 14.889 10.5371 14.748L10.7683 13.158C11.1445 13.005 11.4929 12.807 11.8105 12.567L13.346 13.17C13.4848 13.221 13.6451 13.17 13.7222 13.041L14.9555 10.962C15.0326 10.833 14.9987 10.671 14.8815 10.578L13.5803 9.585ZM8.99846 11.1C7.8052 11.1 6.8401 10.161 6.8401 9C6.8401 7.839 7.8052 6.9 8.99846 6.9C10.1917 6.9 11.1568 7.839 11.1568 9C11.1568 10.161 10.1917 11.1 8.99846 11.1Z" fill="#F2F1F5"/>
</svg>
